# xmcd
#
# Track frame offsets:
#	150
#	25715
#	45138
#	62958
#	87114
#	105829
#	127568
#	150024
#	169794
#	190384
#	217089
#	247424
#	269529
#	287840
#	307663
#
# Disc length: 4411 seconds
#
# Revision: 1
# Processed by: cddbd v1.5.1PL0 Copyright (c) Steve Scherf et al.
# Submitted via: CDex 1.50Beta5
#
DISCID=bc11390f
DTITLE=サザンオールスターズ - さくら
DYEAR=1900
DGENRE=
TTITLE0=NO-NO-YEAH/GO-GO-YEAH
TTITLE1=YALEN SHUFFLE〜子羊達へのレクイエム〜
TTITLE2=マイ フェラ レディ
TTITLE3=LOVER AFFAIR〜秘密のデート〜
TTITLE4=爆笑アイランド
TTITLE5=BLUE HEAVEN
TTITLE6=CRY 哀 CRY
TTITLE7=唐人物語(ラシャメンの歌)
TTITLE8=湘南SEPTEMBER
TTITLE9=PARADISE
TTITLE10=私の世紀末カルテ
TTITLE11=SAUDADE〜真冬の蜃気楼〜
TTITLE12=GIMME SOME LOVIN'〜生命(いのち)果てるまで〜
TTITLE13=SEA SIDE WOMAN BLUES
TTITLE14=(The Return of)01 MESSENGER〜電子狂の詩(うた)〜
EXTD=
EXTT0=
EXTT1=
EXTT2=
EXTT3=
EXTT4=
EXTT5=
EXTT6=
EXTT7=
EXTT8=
EXTT9=
EXTT10=
EXTT11=
EXTT12=
EXTT13=
EXTT14=
PLAYORDER=
